<svg xmlns="http://www.w3.org/2000/svg" viewBox="0 0 200 200" width="200" height="200">
  <path
    d="
      M12,108
      Q20,78 28,112
      Q36,138 44,96
      Q52,70 60,104
      Q66,120 72,96
      Q78,82 84,98
      Q90,106 96,101
      Q100,100 100,92
      L100,28
    "
    stroke="#1A1A1A"
    stroke-width="5.5"
    fill="none"
    stroke-linecap="round"
    stroke-linejoin="round"
  />
  <line x1="100" y1="28" x2="100" y2="172" stroke="#1A1A1A" stroke-width="5.5" stroke-linecap="round" />
  <path
    d="
      M100,100
      Q100,100 104,98
      Q110,94 116,104
      Q124,118 132,92
      Q140,70 148,104
      Q156,130 164,86
      Q172,56 180,100
      Q186,126 192,100
    "
    stroke="#1A1A1A"
    stroke-width="2.5"
    fill="none"
    stroke-linecap="round"
    stroke-linejoin="round"
    opacity="0.2"
  />
</svg>